<svg xmlns="http://www.w3.org/2000/svg" viewBox="0 0 512 512">
  <defs>
    <linearGradient id="grad" x1="0%" y1="0%" x2="100%" y2="100%">
      <stop offset="0%" style="stop-color:#6366f1;stop-opacity:1" />
      <stop offset="100%" style="stop-color:#a855f7;stop-opacity:1" />
    </linearGradient>
  </defs>
  <rect width="512" height="512" rx="100" fill="url(#grad)" />
  <path d="M140 140 h232 a20 20 0 0 1 20 20 v200 a20 20 0 0 1 -20 20 h-232 a20 20 0 0 1 -20 -20 v-200 a20 20 0 0 1 20 -20" fill="white" fill-opacity="0.2" />
  <path d="M160 160 v200 a20 20 0 0 0 20 20 h180" stroke="white" stroke-width="20" fill="none" stroke-linecap="round" />
  <path d="M260 160 v220" stroke="white" stroke-width="20" stroke-linecap="round" stroke-dasharray="10 20" />
  <circle cx="360" cy="140" r="40" fill="#fbbf24" stroke="white" stroke-width="8" />
  <path d="M360 120 l5 15 h15 l-12 9 5 15 -13 -10 -13 10 5 -15 -12 -9 h15 z" fill="white" />
</svg>
